<?xml version="1.0" standalone="no"?>
<!DOCTYPE svg PUBLIC "-//W3C//DTD SVG 1.1//EN" "http://www.w3.org/Graphics/SVG/1.1/DTD/svg11.dtd" >
<!--
2013-9-30: Created.
-->
<svg>
<metadata>
Created by iconfont
</metadata>
<defs>

<font id="iconfont" horiz-adv-x="1024" >
  <font-face
    font-family="iconfont"
    font-weight="500"
    font-stretch="normal"
    units-per-em="1024"
    ascent="896"
    descent="-128"
  />
    <missing-glyph />
    
    <glyph glyph-name="tubiaozhuzhuangtu" unicode="&#983156;" d="M72.0855 711.6685c0 1.3107 0.4997 2.6204 1.4991 3.6209 1.0004 0.9994 2.3101 1.4991 3.6209 1.4991h32.392192c1.3107 0 2.6204-0.4997 3.6209-1.4991 0.9994-1.0004 1.4991-2.3101 1.4991-3.6209v-790.685696h861.740032c1.3097 0 2.6214-0.4997 3.6198-1.5002 1.0004-0.9994 1.5002-2.3101 1.5002-3.6198v-32.392192c0-1.3097-0.4997-2.6214-1.5002-3.6198-0.9994-1.0004-2.3101-1.5002-3.6198-1.5002H72.085504V711.66848zM384.724 701.4285c0 3.9311 1.4991 7.8623 4.4995 10.8605 2.9993 2.9993 6.9304 4.4995 10.8605 4.4995H539.89376c3.9311 0 7.8623-1.4991 10.8605-4.4995 2.9993-2.9993 4.4995-6.9304 4.4995-10.8605v-723.6014080000001H384.723968V701.42848zM171.562 488.2665c0 3.9311 1.4991 7.8623 4.4995 10.8605 2.9993 2.9993 6.9304 4.4995 10.8605 4.4995h139.809792c3.9311 0 7.8623-1.4991 10.8605-4.4995 2.9993-2.9993 4.4995-6.9304 4.4995-10.8605v-510.440448H171.561984V488.26649599999996zM597.887 275.1035c0 3.9311 1.5002 7.8623 4.4995 10.8605s6.9304 4.4995 10.8605 4.4995h139.809792c3.9311 0 7.8623-1.5002 10.8605-4.4995s4.4995-6.9304 4.4995-10.8605v-297.27744H597.886976V275.10348799999997zM811.049 61.9415c0 3.9311 1.5002 7.8623 4.4995 10.8605s6.9304 4.4995 10.8605 4.4995h139.809792c3.9311 0 7.8623-1.5002 10.8605-4.4995s4.4995-6.9304 4.4995-10.8605v-84.11648H811.04896V61.941503999999895z"  horiz-adv-x="1024" />

    
    <glyph glyph-name="chaxun" unicode="&#59161;" d="M690.447716 102.872341c-32.17684-32.17684-69.707618-57.095369-111.548562-74.062809-40.401152-16.384156-83.084277-24.690332-126.862339-24.690332-43.779086 0-86.461187 8.3072-126.862339 24.690332-41.840944 16.96744-79.371722 41.885969-111.548562 74.062809-32.17684 32.177863-57.095369 69.707618-74.062809 111.548562-16.383132 40.401152-24.690332 83.083254-24.689309 126.862339 0 43.779086 8.306176 86.461187 24.689309 126.862339 16.96744 41.840944 41.885969 79.370699 74.061786 111.548562 32.177863 32.177863 69.708642 57.096393 111.548562 74.062809 40.401152 16.383132 83.083254 24.689309 126.863363 24.690332 43.778062 0 86.461187-8.3072 126.862339-24.690332 41.840944-16.96744 79.370699-41.884946 111.548562-74.061786 32.17684-32.177863 57.096393-69.707618 74.062809-111.549585 16.383132-40.400129 24.690332-83.083254 24.690332-126.861316-0.001023-43.779086-8.3072-86.461187-24.690332-126.863363C747.544109 172.579959 722.624557 135.051227 690.447716 102.872341zM249.804904 543.515153c-111.5107-111.5107-111.5107-292.951075 0-404.462798 111.5107-111.5107 292.952098-111.5107 404.462798 0 111.511723 111.511723 111.511723 292.952098 0 404.462798C542.757003 655.025852 361.315604 655.026876 249.804904 543.515153zM769.582115 59.93074l180.34648-180.34648-36.178991-36.178991-180.34648 180.34648 36.178991 36.178991Z"  horiz-adv-x="1024" />

    
    <glyph glyph-name="zhexiantu" unicode="&#58888;" d="M889.80209 24.482857 165.237857 24.482857c-11.30344 0-20.466124 9.162684-20.466124 20.466124L144.771733 601.795375c0 11.30344 9.162684 20.466124 20.466124 20.466124s20.466124-9.162684 20.466124-20.466124l0-536.38027 704.098109 0c11.30344 0 20.466124-9.162684 20.466124-20.466124S901.10553 24.482857 889.80209 24.482857zM165.214321 237.256868c-9.732665 0-18.361183 6.967692-20.125363 16.884552-1.980097 11.128455 5.436826 21.754466 16.565281 23.733541l217.555921 38.70451 131.961474 175.643346c6.760984 8.998955 19.520589 10.850116 28.558429 4.142343l149.301398-110.790292 182.503591 361.421516c5.095042 10.090822 17.407462 14.137998 27.493168 9.04398 10.089799-5.095042 14.139022-17.404392 9.045003-27.494191l-193.456037-383.110491c-2.719948-5.38873-7.680936-9.30083-13.554714-10.69048-5.874801-1.393743-12.062733-0.116657-16.909112 3.479241L531.674597 451.37141 407.092183 285.547711c-3.111874-4.14132-7.677866-6.949272-12.778024-7.855922l-225.491661-40.11565C167.610904 237.360222 166.403402 237.256868 165.214321 237.256868z"  horiz-adv-x="1024" />

    
    <glyph glyph-name="logo" unicode="&#58880;" d="M947.699 546.858v63.535c0 115.648-91.376 208.452-205.596 208.452h-32.838v-197.743l-68.532-29.27-0 227.012h-357.652c-114.22 0-205.596-92.089-205.596-208.452v-63.535h179.896v-68.532h-179.896v-319.816c0-115.648 91.376-208.452 205.596-208.452h357.652v65.677l68.532-37.121v-28.555h32.838c114.22 0 205.596 92.090 205.596 208.452l0 319.816h-102.084l15.706 68.532h86.378zM384.452 546.858h157.766l-154.911-68.532h-2.856l-0 68.532zM709.979 4.313l-233.403 143.036-112.826-94.492 44.974 142.775 0.4-0.272 0.314 0.985 454.739 469.016-516.847-445.457-192.032 124.214 716.73 333.38-162.050-673.184z"  horiz-adv-x="1024" />

    
    <glyph glyph-name="tubiao" unicode="&#58891;" d="M1024.980327 188.036863c0-6.78145-6.258541-12.279674-13.979386-12.279674L15.001669 175.757189c-7.720845 0-13.979386 5.498224-13.979386 12.279674l0 682.545234c0 6.78145 6.258541 12.279674 13.979386 12.279674l995.999272 0c7.720845 0 13.979386-5.498224 13.979386-12.279674L1024.980327 188.036863 1024.980327 188.036863zM981.422276 821.310927c0 6.300496-5.936199 11.408841-13.258978 11.408841L60.33004 832.719768c-7.322779 0-13.258978-5.108345-13.258978-11.408841L47.071062 234.238115c0-6.300496 5.936199-11.408841 13.258978-11.408841l907.833257 0c7.322779 0 13.258978 5.108345 13.258978 11.408841L981.422276 821.310927zM338.699002 209.526293c0-3.391237-5.498224-6.139837-12.279674-6.139837l-105.400538 0c-6.78145 0-12.279674 2.7486-12.279674 6.139837l0 246.105141c0 3.391237 5.498224 6.139837 12.279674 6.139837l105.400538 0c6.78145 0 12.279674-2.7486 12.279674-6.139837L338.699002 209.526293zM591.796394 215.66613c0-6.78145-5.498224-12.279674-12.279674-12.279674l-101.989859 0c-6.78145 0-12.279674 5.498224-12.279674 12.279674l0 558.725184c0 6.78145 5.498224 12.279674 12.279674 12.279674l101.989859 0c6.78145 0 12.279674-5.498224 12.279674-12.279674L591.796394 215.66613zM846.258876 212.737428c0-5.164626-5.498224-9.350972-12.279674-9.350972l-101.307314 0c-6.78145 0-12.279674 4.186346-12.279674 9.350972L720.392214 582.891839c0 5.164626 5.498224 9.350972 12.279674 9.350972l101.307314 0c6.78145 0 12.279674-4.186346 12.279674-9.350972L846.258876 212.737428zM846.258876-35.043888c0-6.78145-5.879917-12.279674-13.132088-12.279674L286.851147-47.323563c-7.253194 0-13.132088 5.498224-13.132088 12.279674l0 19.442818c0 6.78145 5.879917 12.279674 13.132088 12.279674l546.274618 0c7.253194 0 13.132088-5.498224 13.132088-12.279674L846.258876-35.043888 846.258876-35.043888zM720.392214 18.83523c0-12.236696 0 9.565866 0-22.156626L399.926482-3.321396c0 22.156626 0 9.91993 0 22.156626l0 40.621163c0 12.236696 5.498224 22.156626 12.279674 22.156626l295.906383 0c6.78145 0 12.279674-9.91993 12.279674-22.156626L720.392214 18.83523z"  horiz-adv-x="1025" />

    
    <glyph glyph-name="map_02" unicode="&#59128;" d="M899.891 636.589h-470.835c4.972 16.48 7.915 34.18 7.915 53.032 0 72.34-57.498 130.983-128.425 130.983s-128.425-58.644-128.425-130.983c0-18.851 2.943-36.551 7.915-53.032h-68.023c-8.010 0-14.503-6.493-14.503-14.503v-632.527c0-8.010 6.493-14.503 14.503-14.503h779.876c8.010 0 14.503 6.493 14.503 14.503v632.527c0.002 8.010-6.492 14.503-14.501 14.503zM876.789 19.914l-202.101 200.892 108.476 109.128 0.109-0.108 26.692 26.853-143.677 142.818 99.009 99.605h111.492v-579.187zM410.699 244.394l233.247-231.853h-463.713l230.466 231.853zM426.494 282.080l-15.956 15.86-267.421-269.030v140.861l426.763 429.33h142.033l-207.645-208.893-0.353 0.351-26.692-26.853 353.276-351.164h-132.846l-271.159 269.537zM531.12 363.515l108.476 109.128 116.715-116.017-108.476-109.128-116.715 116.017zM308.547 785.812c52.087 0 94.312-43.066 94.312-96.191 0 0-2.214-103.354-94.312-162.194-92.098 58.84-94.312 162.194-94.312 162.194 0 53.124 42.225 96.191 94.312 96.191zM203.617 599.102c37.060-69.531 104.93-109.025 104.93-109.025s67.87 39.495 104.93 109.025h103.017l-373.378-375.624v375.624h60.501z"  horiz-adv-x="1024" />

    
    <glyph glyph-name="guanxitu" unicode="&#58901;" d="M904.704 463.36c-4.096 0-7.68-0.512-11.264-1.536l-90.624 138.752c9.216 9.728 14.848 23.04 14.848 37.376 0 30.72-24.576 55.296-55.296 55.296S706.56 668.672 706.56 637.952s24.576-55.296 55.296-55.296c5.12 0 10.24 1.024 15.36 2.048l92.16-140.288c-1.024-1.024-1.536-2.56-2.048-3.584L640 474.624c-2.048 49.152-42.496 88.064-92.16 88.064-45.056 0-82.432-32.256-90.624-74.752H340.992c-7.168 22.016-28.16 37.888-52.736 37.888-6.656 0-13.312-1.536-19.456-3.584L173.056 655.36c8.704 9.728 13.824 22.528 13.824 36.864 0 30.72-24.576 55.296-55.296 55.296s-55.296-24.576-55.296-55.296 24.576-55.296 55.296-55.296c5.632 0 10.752 1.024 15.872 2.56l97.28-134.656c-7.168-9.216-11.776-20.992-11.776-34.304 0-30.72 24.576-55.296 55.296-55.296 26.112 0 48.128 18.432 53.76 42.496H455.68c1.024-6.656 2.56-13.312 5.12-19.968l-294.4-173.568c-9.728 7.68-21.504 12.288-34.816 12.288-30.72 0-55.296-24.576-55.296-55.296 0-30.72 24.576-55.296 55.296-55.296s55.296 24.576 55.296 55.296c0 6.656-1.024 12.8-3.072 18.432l291.84 172.032c16.896-20.48 42.496-33.792 71.168-33.792 9.728 0 18.944 1.536 28.16 4.608l121.856-261.12c-10.752-10.24-17.92-24.576-17.92-40.448 0-30.72 24.576-55.296 55.296-55.296 30.72 0 55.296 24.576 55.296 55.296s-24.576 55.296-55.296 55.296c-3.584 0-7.168-0.512-10.752-1.024l-121.856 261.12c15.872 11.776 28.16 28.672 33.792 48.64l226.304-33.792c4.096-19.456 21.504-34.304 41.984-34.304 24.064 0 43.008 19.456 43.008 43.008 1.024 24.064-18.432 43.52-41.984 43.52z"  horiz-adv-x="1024" />

    
    <glyph glyph-name="xinzeng" unicode="&#58916;" d="M512 767.76c-211.95 0-383.76-171.82-383.76-383.76S300.05 0.24 512 0.24 895.76 172.05 895.76 384 723.95 767.76 512 767.76z m164.47-420.31H548.55v-127.92a36.55 36.55 0 1 0-73.1 0V347.45H347.53a36.55 36.55 0 0 0 0 73.1h127.92V548.47a36.55 36.55 0 1 0 73.1 0v-127.92h127.92a36.55 36.55 0 0 0 0-73.1z"  horiz-adv-x="1024" />

    
    <glyph glyph-name="fuzhi" unicode="&#59077;" d="M683.8 280.8H201.7c-19 0-34.4-15.4-34.4-34.4s15.4-34.4 34.4-34.4h482.1c19 0 34.4 15.4 34.4 34.4s-15.4 34.4-34.4 34.4z m0 206.6H201.7c-19 0-34.4-15.4-34.4-34.4s15.4-34.4 34.4-34.4h482.1c19 0 34.4 15.4 34.4 34.4s-15.4 34.4-34.4 34.4z m137.8 137.7v-619.8c0-38.1-30.8-68.9-68.9-68.9H132.9c-38 0-68.9 30.8-68.9 68.9V625.1c0 38.1 30.8 68.9 68.9 68.9h619.8c38 0 68.9-30.8 68.9-68.9z m68.8-550.9V728.5c0 19-15.4 34.4-34.4 34.4H201.7c0 38.1 30.8 68.9 68.9 68.9h619.8c38.1 0 68.9-30.8 68.9-68.9v-619.8c0-38.1-30.8-68.9-68.9-68.9z"  horiz-adv-x="1024" />

    
    <glyph glyph-name="xinzeng-" unicode="&#58881;" d="M1021.285503 419.130466H546.463966V893.952002c0 1.130999-0.915999 2.046998-2.046998 2.046998h-65.479936c-1.129999 0-2.046998-0.915999-2.046998-2.046998v-474.821536H2.068498c-1.129999 0-2.046998-0.915999-2.046998-2.045998v-65.479936c0-1.131999 0.915999-2.046998 2.046998-2.046998H476.890034v-474.822537c0-1.129999 0.915999-2.045998 2.046998-2.045998h65.479936c1.130999 0 2.046998 0.915999 2.046998 2.045998V349.557534h474.821537c1.129999 0 2.046998 0.914999 2.046998 2.045998v65.479936c0 1.130999-0.915999 2.046998-2.046998 2.046998z"  horiz-adv-x="1024" />

    
    <glyph glyph-name="biaoge" unicode="&#59818;" d="M960 832H64C28.7 832 0 803.3 0 768v-768c0-35.3 28.7-64 64-64h896c35.3 0 64 28.7 64 64V768c0 35.3-28.7 64-64 64zM384 192V320h256v-128H384z m256-64v-128H384V128h256z m320 384v-128H704V512h256zM640 384H384V512h256v-128z m-320 0H64V512h256v-128zM64 320h256v-128H64V320z m640 0h256v-128H704V320z m256 448v-192H64V768h896zM64 128h256v-128H64V128z m896-128H704V128h256v-128z"  horiz-adv-x="1024" />

    
    <glyph glyph-name="gengduo" unicode="&#59362;" d="M512.01024-123.62752c65.0496 0 117.78048 52.73088 117.78048 117.78048 0 65.04448-52.73088 117.78048-117.78048 117.78048-65.0496 0-117.78048-52.736-117.78048-117.78048 0-65.0496 52.73088-117.78048 117.78048-117.78048zM511.98976 656.07168c65.0496 0 117.78048 52.73088 117.78048 117.78048 0 65.04448-52.73088 117.77536-117.78048 117.77536-65.0496 0-117.78048-52.73088-117.78048-117.77536 0-65.05472 52.73088-117.78048 117.78048-117.78048zM512.01024 266.21952c65.0496 0 117.78048 52.73088 117.78048 117.78048 0 65.0496-52.73088 117.77536-117.78048 117.77536-65.0496 0-117.78048-52.73088-117.78048-117.77536 0-65.0496 52.73088-117.78048 117.78048-117.78048z"  horiz-adv-x="1024" />

    
    <glyph glyph-name="leidatu" unicode="&#59274;" d="M512 870.912L0 499.2l195.584-602.112h632.832L1024 499.2 512 870.912z m406.016-368.64l-65.536-14.848-310.272 189.44V775.168l375.808-272.896z m-454.656-141.312l-143.36-221.184L276.48 402.944l186.88-41.984z m-163.84 97.792l182.272 146.432v-187.392l-182.272 40.96z m212.48-133.12l66.048-101.376-190.464-90.112 124.416 191.488z m48.64 35.328l200.192 45.056-134.656-145.408-65.536 100.352z m-18.944 56.832V613.888l235.008-143.36-235.008-52.736zM482.304 775.168v-101.376L232.448 473.6 105.984 501.76l376.32 273.408zM79.872 446.976l139.776-31.232 56.832-343.04-50.176-76.8-146.432 451.072z m192.512-489.984l59.392 91.136 275.968 130.048 143.872-221.696H272.384z m525.312 38.912l-141.824 218.112 197.632 212.48 90.624 20.48-146.432-451.072z"  horiz-adv-x="1024" />

    
    <glyph glyph-name="baiduditu" unicode="&#59298;" d="M824.32-122.88h-163.84l348.16 348.16v-163.84c0-102.4-81.92-184.32-184.32-184.32z m0 1008.64c102.4 0 184.32-81.92 184.32-184.32v-97.28l-281.6 281.6h97.28z m-58.88-366.08c0-66.56-25.6-128-66.56-174.08l-7.68-5.12c-79.36-87.04-140.8-192-179.2-307.2-2.56-2.56-5.12-5.12-10.24-5.12s-7.68 2.56-10.24 5.12c-38.4 115.2-99.84 217.6-179.2 307.2l-7.68 7.68-2.56 2.56 2.56-2.56c-40.96 46.08-66.56 107.52-66.56 174.08 0 56.32 17.92 107.52 46.08 148.48C332.8 739.84 409.6 783.36 499.2 783.36s168.96-43.52 215.04-112.64c33.28-43.52 51.2-94.72 51.2-151.04z m-289.28 112.64h-33.28v-61.44h-38.4c-38.4 0-71.68-30.72-71.68-71.68v-15.36c0-38.4 30.72-71.68 71.68-71.68h66.56v2.56h2.56v217.6z m176.64-64h-35.84v-125.44h-40.96c-15.36 0-30.72 12.8-30.72 30.72v97.28H512V460.8c0-25.6 20.48-48.64 48.64-48.64h92.16v156.16z m-276.48-84.48v15.36c0 20.48 15.36 35.84 35.84 35.84h30.72v-89.6h-30.72c-20.48 2.56-35.84 17.92-35.84 38.4z m-97.28 194.56c-17.92-28.16-33.28-58.88-40.96-89.6L28.16 801.28C61.44 852.48 117.76 888.32 184.32 888.32h307.2l107.52-107.52c-30.72 12.8-64 17.92-97.28 17.92-92.16-2.56-174.08-48.64-222.72-120.32z m20.48-335.36l7.68-7.68c28.16-30.72 53.76-61.44 76.8-97.28L64-76.8C25.6-43.52 0 5.12 0 61.44V670.72l250.88-250.88c12.8-28.16 28.16-53.76 48.64-76.8z m476.16 181.76c0 35.84-7.68 69.12-17.92 99.84l245.76-245.76-276.48-279.04-117.76 117.76c25.6 40.96 56.32 79.36 89.6 117.76l7.68 7.68c40.96 48.64 69.12 112.64 69.12 181.76zM491.52 17.92c2.56-2.56 5.12-5.12 10.24-5.12s7.68 2.56 10.24 5.12c10.24 33.28 25.6 66.56 40.96 99.84l94.72-94.72-145.92-145.92H184.32c-15.36 0-30.72 2.56-43.52 5.12l286.72 286.72c25.6-48.64 48.64-99.84 64-151.04zM765.44 519.68c0-66.56-25.6-128-66.56-174.08l-7.68-5.12c-79.36-87.04-140.8-192-179.2-307.2-2.56-2.56-5.12-5.12-10.24-5.12s-7.68 2.56-10.24 5.12c-38.4 115.2-99.84 217.6-179.2 307.2l-7.68 7.68-2.56 2.56 2.56-2.56c-40.96 46.08-66.56 107.52-66.56 174.08 0 56.32 17.92 107.52 46.08 148.48C332.8 739.84 409.6 783.36 499.2 783.36s168.96-43.52 215.04-112.64c33.28-43.52 51.2-94.72 51.2-151.04z m-289.28 112.64h-33.28v-61.44h-38.4c-38.4 0-71.68-30.72-71.68-71.68v-15.36c0-38.4 30.72-71.68 71.68-71.68h66.56v2.56h2.56v217.6z m176.64-64h-35.84v-125.44h-40.96c-15.36 0-30.72 12.8-30.72 30.72v97.28H512V460.8c0-25.6 20.48-48.64 48.64-48.64h92.16v156.16z m-276.48-84.48v15.36c0 20.48 15.36 35.84 35.84 35.84h30.72v-89.6h-30.72c-20.48 2.56-35.84 17.92-35.84 38.4zM824.32 885.76c102.4 0 184.32-81.92 184.32-184.32v-97.28l-281.6 281.6h97.28zM279.04 678.4c-17.92-28.16-33.28-58.88-40.96-89.6L28.16 801.28C61.44 852.48 117.76 888.32 184.32 888.32h307.2l107.52-107.52c-30.72 12.8-64 17.92-97.28 17.92-92.16-2.56-174.08-48.64-222.72-120.32z m496.64-153.6c0 35.84-7.68 69.12-17.92 99.84l245.76-245.76-276.48-279.04-117.76 117.76c25.6 40.96 56.32 79.36 89.6 117.76l7.68 7.68c40.96 48.64 69.12 112.64 69.12 181.76z"  horiz-adv-x="1024" />

    
    <glyph glyph-name="mobanguanli" unicode="&#58934;" d="M0 480.0512l505.173333-252.859733L1024 486.4v-94.6176L505.173333 145.066667 0 391.7824V480.0512z m0-136.533333l505.173333-252.859734L1024 349.866667v-94.6176L505.173333 8.533333 0 255.249067V343.517867z m0-136.533334l505.173333-252.859733L1024 213.333333v-94.6176L505.173333-128 0 118.715733v88.2688z m3.618133 393.216L520.192 844.322133l507.426133-238.933333-512-253.405867-512 248.354134z"  horiz-adv-x="1027" />

    
    <glyph glyph-name="tishi" unicode="&#59116;" d="M514.56 570.08c33.92 0 61.44 27.52 61.44 61.44 0 33.96-27.52 61.4-61.44 61.4s-61.44-27.44-61.44-61.4c0-33.92 27.52-61.44 61.44-61.44zM556.28 488.16v40.96H433.4v-40.96h40.96V140H433.4v-40.96h163.84V140h-40.96zM512 896C229.24 896 0 666.76 0 384c0-282.8 229.24-512 512-512s512 229.2 512 512C1024 666.76 794.76 896 512 896z m0-983.04C252.26-87.04 40.96 124.28 40.96 384S252.26 855.04 512 855.04 983.04 643.72 983.04 384 771.74-87.04 512-87.04z"  horiz-adv-x="1024" />

    
    <glyph glyph-name="zuixinICON--" unicode="&#58953;" d="M442.851292 818.114091v-503.961775h503.961775c-5.591809-33.451-15.177767-66.103169-28.658021-97.656948-22.167528-52.123647-54.020868-99.0549-94.461628-139.495661-40.440761-40.440761-87.372014-72.194247-139.495661-94.461628-53.82116-22.966358-110.937494-34.549391-169.551633-34.549391s-115.630619 11.682886-169.551634 34.549391c-52.123647 22.167528-99.0549 54.020868-139.49566 94.461628-40.440761 40.440761-72.194247 87.372014-94.461629 139.495661-22.966358 53.82116-34.549391 110.937494-34.54939 169.551633 0 58.614139 11.682886 115.630619 34.54939 169.551634 22.167528 52.123647 54.020868 99.0549 94.361775 139.49566 40.440761 40.440761 87.372014 72.194247 139.495661 94.461629 31.85334 13.3804 64.50551 22.966358 97.856655 28.558167m71.894686 77.885909C235.05568 896 4.892833 665.837153 4.892833 386.146855s230.162847-509.952999 509.952998-509.952998 509.952999 230.162847 509.952999 509.952998H514.845831l-0.099853 509.853145z m509.952998-509.853145zM645.754071 814.918771c25.16314-5.09254 49.827011-12.681424 73.692053-22.966358 44.734471-19.171916 85.075378-46.631692 119.724622-81.480643 34.649244-34.848952 61.909313-75.189859 80.981375-120.024183 10.18508-23.964895 17.773964-48.628766 22.666797-73.891761l-298.263092 0.099854 1.198245 298.263091M574.258801 894.002925l-1.797368-449.341784 449.341785-0.099854v0.099854c-0.099854 245.839883-201.804388 448.343247-447.544417 449.341784z"  horiz-adv-x="1026" />

    
    <glyph glyph-name="sandiantu" unicode="&#59345;" d="M949.248-3.072c7.168-7.168 10.752-15.36 10.752-25.6s-3.584-18.432-10.752-25.6-15.36-10.752-25.6-10.752H99.84c-10.24 0-18.432 3.584-25.6 10.752s-10.752 15.36-10.752 25.6V796.672c0 10.24 3.584 18.432 10.752 25.6s15.36 10.752 25.6 10.752 18.432-3.584 25.6-10.752 10.752-15.36 10.752-25.6v-788.992h787.968c9.728 0 18.432-3.584 25.088-10.752z m-675.84 215.04c12.288-12.288 27.648-18.432 46.592-18.432 18.432 0 34.304 6.144 46.592 18.432 12.288 12.288 18.432 27.648 18.432 46.592 0 18.432-6.144 34.304-18.432 46.592-12.288 12.288-27.648 18.432-46.592 18.432-18.432 0-34.304-6.144-46.592-18.432-12.288-12.288-18.944-27.648-19.456-46.592 0.512-18.944 7.168-34.304 19.456-46.592z m264.704 26.112c15.872-16.384 36.352-24.576 60.416-24.576 24.576 0 44.544 8.192 60.416 24.576 15.872 16.384 24.064 36.352 24.064 60.416s-8.192 44.032-24.064 60.416c-15.872 16.384-36.352 24.576-60.416 24.576-24.576 0-44.544-8.192-60.416-24.576-15.872-16.384-24.576-36.352-25.088-60.416 0.512-24.064 9.216-44.032 25.088-60.416z m33.792 245.76c5.12-9.216 12.8-16.384 22.016-22.016 9.216-5.632 19.456-8.704 30.208-8.704 10.752 0 20.48 3.072 30.208 8.704 9.216 5.632 16.896 12.8 22.016 22.016 5.12 9.216 8.192 18.944 8.192 29.696 0 10.752-2.56 20.48-8.192 30.208-5.12 9.216-12.8 16.896-22.016 22.016-9.216 5.12-19.456 8.192-30.208 8.192-10.752 0-20.48-2.56-30.208-8.192-9.216-5.12-16.896-12.8-22.016-22.016-5.12-9.216-8.192-19.456-8.192-30.208 0.512-10.752 3.072-20.48 8.192-29.696zM819.2 624.64c8.704-8.704 19.456-12.8 32.256-12.8s23.552 4.096 32.256 12.8c8.192 8.704 12.288 19.456 12.288 32.256s-4.096 23.552-12.288 32.256c-8.192 8.192-18.944 12.288-32.256 12.288s-24.064-4.096-32.256-12.288c-8.704-8.192-12.8-18.944-12.8-32.256-0.512-13.312 4.096-23.552 12.8-32.256z m21.504-182.784c6.144-6.144 14.336-9.728 23.552-9.728 9.216 0 17.408 3.072 23.552 9.728 6.144 6.144 9.728 14.336 9.728 23.552 0 9.216-3.072 17.408-9.728 23.552a32.8704 32.8704 0 0 1-23.552 9.728c-9.216 0-17.408-3.072-23.552-9.728a32.8704 32.8704 0 0 1-9.728-23.552c0-9.216 3.072-16.896 9.728-23.552z"  horiz-adv-x="1024" />

    
    <glyph glyph-name="enlarge-02" unicode="&#58919;" d="M444.37736472 424.76011984H178.50474929a44.18690634 44.18690634 0 0 1 0-88.37381267l202.9504608 0.26512143-322.56441624-322.52022935a44.18690634 44.18690634 0 0 1 62.48028554-62.48028558l322.65279008 322.60860319v-203.34814299a44.18690634 44.18690634 0 1 1 88.37381267 0v265.82842855a88.15287813 88.15287813 0 0 1-88.02031742 88.02031742M983.01575299 831.58896649a44.14271943 44.14271943 0 0 1-62.48028558 1e-8L620.37381267 531.4273117299999V734.0684642a44.18690634 44.18690634 0 0 1-88.37381267-1e-8v-265.87261544c0-48.51722316 39.50309427-87.97613053 88.02031742-87.9761305h265.82842853a44.18690634 44.18690634 0 1 1 0 88.37381266l-203.65745132-0.30930833 300.82445836 300.82445834a44.14271943 44.14271943 0 0 1 0 62.48028558"  horiz-adv-x="1024" />

    
    <glyph glyph-name="zujian-zifuyun" unicode="&#59218;" d="M581.802667 64.785067a11.195733 11.195733 0 0 1 3.037866-8.021334 9.898667 9.898667 0 0 1 7.236267-2.8672 8.123733 8.123733 0 0 1 4.949333 1.501867 9.0112 9.0112 0 0 1 3.037867 4.778667l12.4928-1.9456a19.012267 19.012267 0 0 0-7.611733-9.659734 23.586133 23.586133 0 0 0-13.0048-3.310933c-8.226133 0-14.336 2.4576-18.295467 7.441067a23.6544 23.6544 0 0 0-4.7104 15.086933c0 7.2704 2.082133 12.936533 6.178133 17.032533a20.992 20.992 0 0 0 15.5648 6.178134c7.0656 0 12.629333-2.1504 16.725334-6.4512 4.061867-4.3008 6.007467-10.888533 5.8368-19.7632h-31.4368z m-128.785067-18.568534h-12.526933v60.450134h12.526933v-22.2208a19.114667 19.114667 0 0 0 14.506667 6.5536c2.901333 0 5.495467-0.477867 7.816533-1.467734a12.629333 12.629333 0 0 0 5.256533-3.822933 13.141333 13.141333 0 0 0 2.389334-5.085867c0.443733-1.877333 0.648533-4.778667 0.648533-8.704v-25.7024h-12.526933v23.1424a31.6416 31.6416 0 0 1-0.7168 8.738134 5.870933 5.870933 0 0 1-2.525867 2.935466 8.430933 8.430933 0 0 1-4.539733 1.092267 10.786133 10.786133 0 0 1-5.563734-1.399467 8.2944 8.2944 0 0 1-3.618133-4.1984 23.8592 23.8592 0 0 1-1.1264-8.362666v-21.947734z m55.876267 0h-12.526934v43.793067h12.526934v-43.793067z m37.205333 0h-11.298133l-19.114667 43.793067h13.175467l8.942933-22.357333 2.56-7.441067a160.938667 160.938667 0 0 0 2.6624 7.441067l9.0112 22.357333h12.9024l-18.8416-43.793067z m54.6816 25.668267c-0.1024 3.345067-1.024 5.905067-2.798933 7.645867a9.0112 9.0112 0 0 1-6.519467 2.594133 9.0112 9.0112 0 0 1-6.792533-2.7648 10.103467 10.103467 0 0 1-2.628267-7.4752h18.7392z m-91.886933 24.064h-12.526934v10.717867h12.526934v-10.717867z m329.3184 35.805867h-15.9744v80.964266h14.882133v-8.6016a22.3232 22.3232 0 0 0 18.773333 9.9328 23.210667 23.210667 0 0 0 17.8176-8.021333c4.881067-5.3248 7.338667-12.765867 7.338667-22.289067 0-9.796267-2.4576-17.408-7.3728-22.8352a23.3472 23.3472 0 0 0-26.9312-6.212266 29.525333 29.525333 0 0 0-8.533333 6.621866v-29.559466z m-374.101334 52.462933c0 5.154133 1.297067 10.1376 3.8912 14.984533a26.555733 26.555733 0 0 0 11.093334 11.025067 33.553067 33.553067 0 0 0 16.042666 3.822933c9.1136 0 16.5888-2.8672 22.4256-8.635733 5.802667-5.768533 8.738133-13.038933 8.738134-21.845333 0-8.874667-2.935467-16.247467-8.840534-22.084267a30.208 30.208 0 0 0-22.2208-8.738133c-5.495467 0-10.786133 1.2288-15.803733 3.652266a25.4976 25.4976 0 0 0-11.434667 10.683734 34.9184 34.9184 0 0 0-3.8912 17.134933z m283.921067 0c0 5.154133 1.297067 10.1376 3.925333 14.984533a26.385067 26.385067 0 0 0 11.093334 11.025067 33.416533 33.416533 0 0 0 16.008533 3.822933c9.147733 0 16.5888-2.8672 22.4256-8.635733a29.3888 29.3888 0 0 0 8.738133-21.845333c0-8.874667-2.935467-16.247467-8.8064-22.084267a30.3104 30.3104 0 0 0-22.2208-8.738133c-5.5296 0-10.786133 1.2288-15.803733 3.652266a25.156267 25.156267 0 0 0-11.434667 10.683734 34.577067 34.577067 0 0 0-3.925333 17.134933z m-83.012267-30.139733h-14.813866v8.6016a23.7568 23.7568 0 0 0-18.8416-9.9328 23.278933 23.278933 0 0 0-17.783467 8.157866c-4.9152 5.4272-7.406933 13.0048-7.406933 22.698667 0 9.966933 2.423467 17.5104 7.202133 22.698667a23.893333 23.893333 0 0 0 18.2272 7.748266c6.724267 0 12.561067-2.730667 17.476267-8.192v29.184h15.940266v-80.964266z m12.049067 30.139733c0 5.154133 1.297067 10.1376 3.8912 14.984533a26.555733 26.555733 0 0 0 11.093333 11.025067 33.450667 33.450667 0 0 0 16.042667 3.822933c9.1136 0 16.5888-2.8672 22.391467-8.635733a29.3888 29.3888 0 0 0 8.738133-21.845333c0-8.874667-2.935467-16.247467-8.8064-22.084267a30.208 30.208 0 0 0-22.2208-8.738133c-5.5296 0-10.786133 1.2288-15.803733 3.652266a25.326933 25.326933 0 0 0-11.434667 10.683734 34.9184 34.9184 0 0 0-3.8912 17.134933z m-141.994667 0a31.402667 31.402667 0 0 0 3.925334 14.984533 26.555733 26.555733 0 0 0 11.093333 11.025067 33.450667 33.450667 0 0 0 16.042667 3.822933c9.1136 0 16.5888-2.8672 22.391466-8.635733a29.3888 29.3888 0 0 0 8.738134-21.845333c0-8.874667-2.935467-16.247467-8.8064-22.084267a30.242133 30.242133 0 0 0-22.2208-8.738133c-5.5296 0-10.786133 1.2288-15.803734 3.652266a25.326933 25.326933 0 0 0-11.434666 10.683734 34.9184 34.9184 0 0 0-3.925334 17.134933z m-122.368-30.139733h-15.940266v80.964266h15.940266v-29.764266a23.790933 23.790933 0 0 0 18.432 8.772266c3.652267 0 6.9632-0.648533 9.9328-1.979733a16.452267 16.452267 0 0 0 9.728-11.946667c0.546133-2.491733 0.8192-6.382933 0.8192-11.639466v-34.4064h-15.940266v30.993066c0 6.144-0.3072 10.0352-0.9216 11.707734a7.509333 7.509333 0 0 1-3.208534 3.925333 10.308267 10.308267 0 0 1-5.7344 1.467733 13.380267 13.380267 0 0 1-7.099733-1.877333 10.922667 10.922667 0 0 1-4.573867-5.666133 33.211733 33.211733 0 0 1-1.4336-11.1616v-29.3888z m-152.405333 17.442133l11.537067-1.399467c0.2048-1.3312 0.648533-2.2528 1.3312-2.7648 0.955733-0.7168 2.491733-1.092267 4.539733-1.092266a11.912533 11.912533 0 0 1 5.9392 1.194666 5.12 5.12 0 0 1 1.979733 2.56 14.267733 14.267733 0 0 1 0.477867 4.642134v5.563733a13.6192 13.6192 0 0 0-11.434667-6.178133 13.994667 13.994667 0 0 0-12.151466 6.485333 22.186667 22.186667 0 0 0-3.549867 12.8c0 6.382933 1.570133 11.298133 4.642133 14.6432a14.882133 14.882133 0 0 0 11.4688 5.085867 13.994667 13.994667 0 0 0 11.6736-6.212267v5.358933h9.454934v-34.235733a33.757867 33.757867 0 0 0-1.1264-10.103467 12.3904 12.3904 0 0 0-3.106134-5.256533 14.062933 14.062933 0 0 0-5.393066-2.9696 28.091733 28.091733 0 0 0-8.4992-1.092267c-6.4512 0-11.025067 1.1264-13.755734 3.345067a10.376533 10.376533 0 0 0-4.061866 8.3968l0.034133 1.2288z m362.154667 13.141333c0-6.2464 0.887467-10.786133 2.6624-13.585066a12.1856 12.1856 0 0 1 10.786133-6.075734 11.946667 11.946667 0 0 1 9.386667 4.573867c2.56 3.037867 3.857067 7.5776 3.857066 13.6192 0 6.724267-1.262933 11.5712-3.754666 14.5408a11.946667 11.946667 0 0 1-9.591467 4.437333 12.014933 12.014933 0 0 1-9.489067-4.4032c-2.56-2.901333-3.857067-7.2704-3.857066-13.1072z m215.586133-0.273066c0-6.587733 1.3312-11.4688 4.027733-14.609067a12.3904 12.3904 0 0 1 9.796267-4.7104 11.605333 11.605333 0 0 1 9.250133 4.334933c2.4576 2.8672 3.6864 7.611733 3.6864 14.199467 0 6.178133-1.262933 10.717867-3.7888 13.7216a11.8784 11.8784 0 0 1-9.4208 4.471467 12.322133 12.322133 0 0 1-9.693866-4.4032c-2.594133-2.935467-3.857067-7.2704-3.857067-13.0048z m-144.657067-0.989867c0-5.802667 1.4336-10.274133 4.266667-13.380267 2.833067-3.072 6.3488-4.608 10.478933-4.608a13.653333 13.653333 0 0 1 10.478934 4.608c2.833067 3.106133 4.232533 7.611733 4.232533 13.482667 0 5.7344-1.399467 10.171733-4.232533 13.277867a13.653333 13.653333 0 0 1-10.478934 4.608 13.7216 13.7216 0 0 1-10.478933-4.608c-2.833067-3.106133-4.266667-7.5776-4.266667-13.380267z m-212.923733 0c0-5.802667 1.399467-10.274133 4.232533-13.380267 2.833067-3.072 6.3488-4.608 10.513067-4.608a13.550933 13.550933 0 0 1 10.4448 4.608c2.833067 3.106133 4.232533 7.611733 4.232533 13.482667 0 5.7344-1.399467 10.171733-4.232533 13.277867a13.550933 13.550933 0 0 1-10.4448 4.608 13.755733 13.755733 0 0 1-10.513067-4.608c-2.833067-3.106133-4.232533-7.5776-4.232533-13.380267z m283.921067 0c0-5.802667 1.399467-10.274133 4.266666-13.380267a13.653333 13.653333 0 0 1 10.478934-4.608 13.653333 13.653333 0 0 1 10.478933 4.608c2.798933 3.106133 4.232533 7.611733 4.232533 13.482667 0 5.7344-1.4336 10.171733-4.232533 13.277867a13.653333 13.653333 0 0 1-10.478933 4.608 13.653333 13.653333 0 0 1-10.478934-4.608c-2.8672-3.106133-4.266667-7.5776-4.266666-13.380267z m-212.957867 0c0-5.802667 1.4336-10.274133 4.266667-13.380267a13.653333 13.653333 0 0 1 10.478933-4.608 13.653333 13.653333 0 0 1 10.478933 4.608c2.833067 3.106133 4.232533 7.611733 4.232534 13.482667 0 5.7344-1.399467 10.171733-4.232534 13.277867a13.653333 13.653333 0 0 1-10.478933 4.608 13.653333 13.653333 0 0 1-10.478933-4.608c-2.833067-3.106133-4.266667-7.5776-4.266667-13.380267z m-237.841067 6.792533a10.069333 10.069333 0 0 1 2.4576-6.9632 7.611733 7.611733 0 0 1 5.802667-2.491733 6.144 6.144 0 0 1 3.9936 1.262933 7.953067 7.953067 0 0 1 2.4576 4.1984l10.069333-1.706666a16.5888 16.5888 0 0 0-6.144-8.430934 18.1248 18.1248 0 0 0-10.478933-2.8672c-6.621867 0-11.537067 2.1504-14.711467 6.485334a21.777067 21.777067 0 0 0-3.7888 13.141333c0 6.3488 1.672533 11.298133 4.949334 14.882133a16.4864 16.4864 0 0 0 12.561066 5.358934c5.666133 0 10.1376-1.877333 13.4144-5.632 3.310933-3.754667 4.881067-9.489067 4.7104-17.237334h-25.2928z m-88.712533-16.145066h-10.001067a31.300267 31.300267 0 0 0-0.955733 2.9696l-0.375467 1.194666a16.213333 16.213333 0 0 0-11.810133-5.0176 13.038933 13.038933 0 0 0-9.284267 3.1744 10.615467 10.615467 0 0 0-3.413333 8.0896c0 2.1504 0.512 4.096 1.536 5.768534a10.6496 10.6496 0 0 0 4.334933 3.8912c1.877333 0.887467 4.539733 1.672533 8.055467 2.3552 4.7104 0.887467 7.9872 1.706667 9.796267 2.4576v1.024c0 1.9456-0.477867 3.310933-1.4336 4.130133-0.955733 0.8192-2.7648 1.262933-5.4272 1.262933a7.338667 7.338667 0 0 1-4.1984-1.058133 7.2704 7.2704 0 0 1-2.4576-3.720533l-9.147734 1.6384a14.336 14.336 0 0 0 5.290667 8.192c2.525867 1.774933 6.280533 2.6624 11.229867 2.6624 4.5056 0 7.850667-0.546133 10.069333-1.604267 2.184533-1.058133 3.754667-2.423467 4.642133-4.061867a21.026133 21.026133 0 0 0 1.3312-9.045333l-0.1024-11.776c0-3.345067 0.170667-5.8368 0.477867-7.406933 0.341333-1.604267 0.955733-3.310933 1.8432-5.12z m-43.52 0h-10.103467v52.667733h10.103467v-52.667733z m175.445333 0h-10.103466v38.161066h9.352533v-5.4272a16.554667 16.554667 0 0 0 4.334933 5.051734 7.953067 7.953067 0 0 0 4.369067 1.2288c2.321067 0 4.5056-0.648533 6.656-1.911467l-3.140267-8.8064a8.874667 8.874667 0 0 1-4.744533 1.672533 5.597867 5.597867 0 0 1-3.584-1.194666c-0.989867-0.750933-1.7408-2.184533-2.321067-4.1984-0.546133-2.048-0.8192-6.314667-0.8192-12.8v-11.776z m-114.517333 0h-10.103467v38.161066h9.386667v-5.4272a16.110933 16.110933 0 0 0 4.334933 5.051734 7.850667 7.850667 0 0 0 4.369067 1.2288c2.286933 0 4.5056-0.648533 6.621867-1.911467l-3.106134-8.8064a8.977067 8.977067 0 0 1-4.744533 1.672533 5.5296 5.5296 0 0 1-3.584-1.194666c-0.989867-0.750933-1.774933-2.184533-2.321067-4.1984-0.580267-2.048-0.853333-6.314667-0.853333-12.8v-11.776z m-29.525333 18.3296a62.907733 62.907733 0 0 0-6.144-1.570134 17.885867 17.885867 0 0 1-5.495467-1.7408c-1.3312-0.955733-1.979733-2.116267-1.979733-3.549866 0-1.4336 0.512-2.6624 1.570133-3.6864s2.389333-1.536 4.027733-1.536a8.669867 8.669867 0 0 1 5.2224 1.809066 6.144 6.144 0 0 1 2.389334 3.310934 19.626667 19.626667 0 0 1 0.4096 4.949333v2.013867z m56.593066 1.536c0-4.061867 0.785067-7.031467 2.3552-8.9088a7.236267 7.236267 0 0 1 5.802667-2.798934 8.055467 8.055467 0 0 1 6.2464 2.8672c1.706667 1.9456 2.525867 4.8128 2.525867 8.567467 0 3.959467-0.785067 6.894933-2.423467 8.8064a7.714133 7.714133 0 0 1-6.178133 2.901333 7.441067 7.441067 0 0 1-5.973334-2.833066c-1.570133-1.877333-2.3552-4.744533-2.3552-8.6016z m59.528534 2.4576a9.796267 9.796267 0 0 1-2.286934 6.690133 6.997333 6.997333 0 0 1-5.2224 2.286933 6.997333 6.997333 0 0 1-5.461333-2.423466 9.3184 9.3184 0 0 1-2.116267-6.5536h15.086934z m-133.563734 173.806933l-34.542933-6.2464c-1.160533 6.929067-3.822933 12.117333-7.918933 15.598933a24.029867 24.029867 0 0 1-16.042667 5.256534 26.3168 26.3168 0 0 1-20.8896-9.045334c-5.188267-6.0416-7.7824-16.110933-7.7824-30.242133 0-15.735467 2.628267-26.8288 7.918933-33.314133 5.290667-6.485333 12.356267-9.728 21.265067-9.728a23.688533 23.688533 0 0 1 16.349867 5.700266c4.232533 3.754667 7.202133 10.274133 8.977066 19.490134l34.4064-5.8368c-3.584-15.803733-10.4448-27.7504-20.5824-35.805867s-23.722667-12.0832-40.789333-12.0832c-19.3536 0-34.781867 6.109867-46.318933 18.3296-11.502933 12.219733-17.271467 29.115733-17.271467 50.756267 0 21.845333 5.768533 38.877867 17.339733 51.063466 11.5712 12.1856 27.170133 18.261333 46.8992 18.261334 16.110933 0 28.945067-3.4816 38.468267-10.410667s16.349867-17.5104 20.514133-31.744z m373.248-93.2864h-32.5632v19.831467a50.858667 50.858667 0 0 0-19.012266-16.6912c-7.850667-4.096-16.145067-6.109867-24.8832-6.109867a48.810667 48.810667 0 0 0-23.927467 5.8368 34.850133 34.850133 0 0 0-15.36 16.4864c-3.140267 7.0656-4.7104 16.827733-4.7104 29.2864v83.797333h35.0208v-60.859733c0-18.602667 0.648533-30.0032 1.9456-34.2016a18.773333 18.773333 0 0 1 7.031467-10.001067c3.413333-2.4576 7.748267-3.6864 12.970666-3.6864a27.682133 27.682133 0 0 1 25.838934 17.169067c1.7408 4.846933 2.594133 16.759467 2.594133 35.7376v55.842133h35.054933v-132.437333z m-283.8528 68.096c0 11.639467 2.8672 22.903467 8.635734 33.792a59.050667 59.050667 0 0 0 24.3712 24.951467 72.362667 72.362667 0 0 0 35.2256 8.6016c20.036267 0 36.4544-6.519467 49.2544-19.524267 12.8-13.0048 19.217067-29.457067 19.217066-49.322667 0-20.036267-6.485333-36.625067-19.387733-49.800533-12.936533-13.175467-29.218133-19.7632-48.8448-19.7632-12.117333 0-23.722667 2.730667-34.7136 8.226133a56.354133 56.354133 0 0 0-25.122133 24.132267c-5.768533 10.581333-8.635733 23.483733-8.635734 38.7072z m441.617067-68.096h-32.5632v19.456a52.770133 52.770133 0 0 0-19.1488-16.896 49.186133 49.186133 0 0 0-22.254933-5.5296c-15.223467 0-28.228267 6.109867-39.082667 18.397867-10.8544 12.253867-16.2816 29.354667-16.2816 51.3024 0 22.459733 5.290667 39.492267 15.837867 51.2 10.5472 11.6736 23.893333 17.5104 40.0384 17.5104 14.779733 0 27.579733-6.144 38.4-18.466134v65.8432h35.054933v-182.818133z m-469.4016 0H221.866667v182.818133h35.054933v-182.818133z m375.842133 69.085867c0-14.1312 1.979733-24.337067 5.870934-30.651734 5.666133-9.147733 13.550933-13.7216 23.688533-13.7216 8.0896 0 14.9504 3.413333 20.5824 10.274134 5.666133 6.8608 8.4992 17.1008 8.4992 30.754133 0 15.189333-2.7648 26.146133-8.260267 32.836267a26.0096 26.0096 0 0 1-21.060266 10.069333 26.282667 26.282667 0 0 1-20.8896-9.9328c-5.597867-6.621867-8.430933-16.4864-8.430934-29.627733z m-312.1152-2.8672c0-13.141333 3.106133-23.176533 9.352534-30.173867a29.764267 29.764267 0 0 1 23.074133-10.478933 29.627733 29.627733 0 0 1 23.005867 10.478933c6.178133 6.997333 9.284267 17.134933 9.284266 30.446933 0 12.970667-3.106133 22.9376-9.284266 29.9008a29.4912 29.4912 0 0 1-23.005867 10.478934 29.661867 29.661867 0 0 1-23.074133-10.478934c-6.2464-6.9632-9.352533-17.032533-9.352534-30.173866z m498.346667-24.029867h-7.338667v4.369067a11.3664 11.3664 0 0 0-18.193066-0.887467 16.827733 16.827733 0 0 0-3.6864 11.5712c0 5.085867 1.194667 8.942933 3.584 11.5712a11.605333 11.605333 0 0 0 9.045333 3.959467c3.345067 0 6.2464-1.365333 8.669867-4.164267v14.882133h7.918933v-41.301333z m16.145067 29.934933h5.393066v-6.314666h-5.393066v-12.0832c0-2.423467 0.034133-3.857067 0.136533-4.266667 0.1024-0.4096 0.341333-0.750933 0.7168-0.989867 0.341333-0.273067 0.8192-0.4096 1.3312-0.4096a10.9568 10.9568 0 0 1 3.1744 0.750934l0.682667-6.144a15.803733 15.803733 0 0 0-6.2464-1.160534 9.8304 9.8304 0 0 0-3.857067 0.7168 5.461333 5.461333 0 0 0-2.525867 1.8432 7.3728 7.3728 0 0 0-1.1264 3.106134 38.638933 38.638933 0 0 0-0.238933 5.563733v13.073067h-3.652267v6.314666h3.652267v5.9392l7.953067 4.608v-10.5472z m-49.698134-29.934933h-7.816533a20.8896 20.8896 0 0 0-0.750933 2.321067 6.792533 6.792533 0 0 1-0.3072 0.9216 14.1312 14.1312 0 0 0-4.334934-2.935467 11.946667 11.946667 0 0 0-4.9152-0.989867 10.205867 10.205867 0 0 0-7.304533 2.491734 8.362667 8.362667 0 0 0-2.6624 6.3488c0 1.706667 0.4096 3.208533 1.2288 4.539733a7.918933 7.918933 0 0 0 3.3792 3.037867 28.706133 28.706133 0 0 0 6.314667 1.8432c3.6864 0.682667 6.2464 1.3312 7.68 1.9456v0.785066c0 1.536-0.375467 2.594133-1.1264 3.242667-0.750933 0.648533-2.184533 0.989867-4.266667 0.989867a5.4272 5.4272 0 0 1-3.2768-0.853334 5.597867 5.597867 0 0 1-1.911467-2.901333l-7.202133 1.297067a11.093333 11.093333 0 0 0 4.164267 6.417066 15.2576 15.2576 0 0 0 8.8064 2.082134c3.515733 0 6.144-0.4096 7.8848-1.2288a7.953067 7.953067 0 0 0 3.652266-3.208534 16.042667 16.042667 0 0 0 1.058134-7.0656l-0.068267-9.250133c0-2.628267 0.1024-4.573867 0.375467-5.8368a16.4864 16.4864 0 0 1 1.399466-3.9936z m133.768534 12.663467c0.068267-2.3552 0.682667-4.164267 1.911466-5.461334a5.973333 5.973333 0 0 1 4.573867-1.979733c1.2288 0 2.286933 0.341333 3.140267 1.024a6.587733 6.587733 0 0 1 1.911466 3.2768l7.8848-1.3312a12.970667 12.970667 0 0 0-4.8128-6.621867 14.165333 14.165333 0 0 0-8.226133-2.2528c-5.188267 0-9.045333 1.706667-11.537067 5.085867a17.134933 17.134933 0 0 0-2.9696 10.308267c0 4.983467 1.297067 8.874667 3.8912 11.6736a12.834133 12.834133 0 0 0 9.8304 4.1984c4.471467 0 7.9872-1.467733 10.5472-4.4032 2.594133-2.935467 3.822933-7.441067 3.6864-13.5168h-19.831466z m-49.800534-12.663467h-7.918933v29.934933h7.304533v-4.096a11.6736 11.6736 0 0 0 9.3184 4.744534c1.911467 0 3.584-0.375467 4.983467-1.160534a9.284267 9.284267 0 0 0 3.4816-3.584 13.653333 13.653333 0 0 0 4.232533 3.584 10.581333 10.581333 0 0 0 4.881067 1.160534c2.218667 0 4.061867-0.443733 5.597867-1.3312a8.192 8.192 0 0 0 3.413333-3.925334 17.134933 17.134933 0 0 0 0.8192-6.212266v-19.114667h-7.918933v17.1008c0 2.9696-0.273067 4.881067-0.8192 5.7344a3.7888 3.7888 0 0 1-3.3792 1.706667 5.3248 5.3248 0 0 1-3.140267-1.024 5.666133 5.666133 0 0 1-2.116267-2.9696 20.957867 20.957867 0 0 1-0.648533-6.178134v-14.370133h-7.918933v16.384a21.060267 21.060267 0 0 1-0.443734 5.632 3.618133 3.618133 0 0 1-1.297066 1.911467 4.164267 4.164267 0 0 1-2.423467 0.6144 5.802667 5.802667 0 0 1-3.2768-0.989867 5.393067 5.393067 0 0 1-2.116267-2.8672 21.572267 21.572267 0 0 1-0.6144-6.144v-14.5408z m-15.4624 0h-7.918933v29.934933h7.918933v-29.934933z m-77.994666 14.370133a51.541333 51.541333 0 0 0-4.8128-1.2288 14.472533 14.472533 0 0 1-4.3008-1.365333c-1.058133-0.750933-1.570133-1.672533-1.570134-2.798933s0.4096-2.082133 1.2288-2.8672a4.437333 4.437333 0 0 1 3.1744-1.2288 6.997333 6.997333 0 0 1 4.096 1.399466 5.051733 5.051733 0 0 1 1.877334 2.628267 15.872 15.872 0 0 1 0.3072 3.857067v1.604266z m21.9136 1.2288c0-3.208533 0.443733-5.495467 1.3312-6.929066a5.905067 5.905067 0 0 1 5.358933-3.106134 5.905067 5.905067 0 0 1 4.642133 2.321067c1.262933 1.570133 1.911467 3.857067 1.911467 6.9632 0 3.413333-0.6144 5.905067-1.877333 7.406933a5.802667 5.802667 0 0 1-4.744534 2.286934 5.905067 5.905067 0 0 1-4.7104-2.2528c-1.297067-1.501867-1.911467-3.720533-1.911466-6.690134z m133.3248 1.911467c-0.068267 2.286933-0.648533 4.027733-1.774934 5.2224a5.461333 5.461333 0 0 1-4.130133 1.809067 5.495467 5.495467 0 0 1-4.266667-1.911467 7.338667 7.338667 0 0 1-1.672533-5.12h11.844267z m-77.243734 16.452267h-7.918933v7.338666h7.918933v-7.338666z m-201.386666 117.998933h-21.742934v12.970667a35.054933 35.054933 0 0 0-12.8-11.264 32.5632 32.5632 0 0 0-14.882133-3.720534 33.655467 33.655467 0 0 0-26.112 12.288c-7.2704 8.192-10.888533 19.626667-10.888533 34.304 0 14.984533 3.515733 26.385067 10.581333 34.2016a34.474667 34.474667 0 0 0 26.760533 11.707734c9.864533 0 18.432-4.130133 25.668267-12.322134V593.2032h23.415467v-122.1632z m142.574933 88.4736h16.008533v-18.670933h-16.008533v-35.6352c0-7.236267 0.136533-11.434667 0.443733-12.629334 0.3072-1.194667 1.024-2.184533 2.082134-2.9696a6.621867 6.621867 0 0 1 3.959466-1.160533 30.071467 30.071467 0 0 1 9.4208 2.2528l2.013867-18.193067c-5.461333-2.321067-11.605333-3.4816-18.500267-3.4816a29.7984 29.7984 0 0 0-11.434666 2.116267 16.6912 16.6912 0 0 0-7.441067 5.495467 21.504 21.504 0 0 0-3.2768 9.147733 111.377067 111.377067 0 0 0-0.750933 16.4864v38.570667h-10.752v18.670933h10.752v17.578667l23.483733 13.687466v-31.266133z m-42.5984-88.4736h-23.1424a82.7392 82.7392 0 0 0-2.2528 6.894933 48.7424 48.7424 0 0 1-0.853333 2.7648 41.984 41.984 0 0 0-12.834134-8.772266 36.522667 36.522667 0 0 0-14.574933-2.901334c-9.1136 0-16.2816 2.4576-21.538133 7.406934a24.6784 24.6784 0 0 0-7.8848 18.773333c0 4.983467 1.194667 9.454933 3.584 13.346133a23.278933 23.278933 0 0 0 10.069333 9.0112c4.3008 2.082133 10.513067 3.8912 18.602667 5.461334 10.9568 2.048 18.5344 3.959467 22.766933 5.7344v2.3552c0 4.5056-1.1264 7.714133-3.345067 9.6256-2.218667 1.911467-6.417067 2.8672-12.5952 2.8672a16.657067 16.657067 0 0 1-9.728-2.4576 16.827733 16.827733 0 0 1-5.666133-8.635734l-21.265067 3.857067c2.389333 8.533333 6.519467 14.882133 12.356267 18.978133 5.802667 4.130133 14.472533 6.178133 25.975467 6.178134 10.4448 0 18.2272-1.2288 23.3472-3.720534 5.12-2.4576 8.704-5.597867 10.786133-9.4208 2.082133-3.7888 3.140267-10.786133 3.140267-20.957866l-0.273067-27.306667c0-7.7824 0.375467-13.5168 1.1264-17.237333 0.750933-3.6864 2.1504-7.645867 4.1984-11.844267z m151.7568 0h-23.1424a82.7392 82.7392 0 0 0-2.2528 6.894933 48.7424 48.7424 0 0 1-0.853333 2.7648 41.984 41.984 0 0 0-12.834134-8.772266 36.6592 36.6592 0 0 0-14.574933-2.901334c-9.1136 0-16.2816 2.4576-21.538133 7.406934a24.6784 24.6784 0 0 0-7.8848 18.773333c0 4.983467 1.194667 9.454933 3.584 13.346133a23.381333 23.381333 0 0 0 10.0352 9.0112c4.3008 2.082133 10.513067 3.8912 18.6368 5.461334 10.9568 2.048 18.5344 3.959467 22.766933 5.7344v2.3552c0 4.5056-1.1264 7.714133-3.345067 9.6256-2.218667 1.911467-6.417067 2.8672-12.5952 2.8672a16.657067 16.657067 0 0 1-9.728-2.4576 16.827733 16.827733 0 0 1-5.666133-8.635734l-21.265067 3.857067c2.389333 8.533333 6.485333 14.882133 12.322134 18.978133 5.8368 4.130133 14.506667 6.178133 26.0096 6.178134 10.4448 0 18.2272-1.2288 23.3472-3.720534a23.210667 23.210667 0 0 0 10.786133-9.4208c2.082133-3.7888 3.106133-10.786133 3.106133-20.957866l-0.238933-27.306667c0-7.7824 0.375467-13.5168 1.1264-17.237333 0.750933-3.6864 2.1504-7.645867 4.1984-11.844267zM317.8496 534.289067h11.1616l9.489067-28.125867 9.250133 28.125867h10.8544l-13.994667-38.126934-2.491733-6.894933a27.989333 27.989333 0 0 0-2.628267-5.290667 11.946667 11.946667 0 0 0-2.8672-2.9696 11.946667 11.946667 0 0 0-3.9936-1.774933 26.624 26.624 0 0 0-11.298133 0l-0.9216 8.192a24.337067 24.337067 0 0 1 4.437333-0.477867c2.423467 0 4.232533 0.7168 5.393067 2.1504a14.882133 14.882133 0 0 1 2.696533 5.461334l-15.086933 39.7312z m-31.505067-54.6816h-10.478933v54.6816h9.762133v-5.8368a14.336 14.336 0 0 0 5.154134 4.846933 15.1552 15.1552 0 0 0 18.909866-3.515733c3.208533-3.618133 4.8128-8.635733 4.8128-15.086934 0-6.621867-1.604267-11.741867-4.846933-15.428266a15.1552 15.1552 0 0 0-17.7152-4.1984 20.514133 20.514133 0 0 0-5.597867 4.471466v-19.933866z m438.135467 33.928533c-3.003733-1.024-7.748267-2.218667-14.267733-3.584-6.485333-1.399467-10.752-2.7648-12.731734-4.096a9.728 9.728 0 0 1-4.608-8.260267c0-3.2768 1.2288-6.109867 3.6864-8.4992 2.423467-2.389333 5.563733-3.584 9.3184-3.584a20.309333 20.309333 0 0 1 12.0832 4.164267 14.779733 14.779733 0 0 1 5.597867 7.748267c0.6144 2.013867 0.9216 5.8368 0.9216 11.434666v4.676267z m151.7568 0c-3.003733-1.024-7.7824-2.218667-14.267733-3.584-6.485333-1.399467-10.752-2.7648-12.765867-4.096a9.796267 9.796267 0 0 1-4.573867-8.260267c0-3.2768 1.2288-6.109867 3.6864-8.4992 2.423467-2.389333 5.5296-3.584 9.3184-3.584a20.309333 20.309333 0 0 1 12.0832 4.164267 14.779733 14.779733 0 0 1 5.597867 7.748267c0.6144 2.013867 0.9216 5.8368 0.9216 11.434666v4.676267z m-286.173867 3.652267c0-9.454933 1.297067-16.2816 3.8912-20.48 3.7888-6.144 9.079467-9.181867 15.837867-9.181867a17.271467 17.271467 0 0 1 13.755733 6.8608c3.7888 4.608 5.666133 11.434667 5.666134 20.548267 0 10.171733-1.8432 17.476267-5.495467 21.947733a17.3056 17.3056 0 0 1-14.097067 6.724267 17.578667 17.578667 0 0 1-13.9264-6.621867c-3.754667-4.4032-5.632-11.025067-5.632-19.797333z m-213.742933 17.1008h7.168v-8.362667h-7.168v-15.9744c0-3.208533 0.068267-5.12 0.2048-5.632a2.286933 2.286933 0 0 1 0.9216-1.3312c0.477867-0.341333 1.092267-0.512 1.774933-0.512 0.989867 0 2.389333 0.3072 4.232534 0.989867l0.887466-8.123734a20.548267 20.548267 0 0 0-8.2944-1.570133 12.731733 12.731733 0 0 0-5.085866 0.955733 7.168 7.168 0 0 0-3.345067 2.4576 9.454933 9.454933 0 0 0-1.467733 4.096 47.8208 47.8208 0 0 0-0.341334 7.3728v17.271467h-4.8128v8.362667h4.8128v7.850666l10.513067 6.144v-13.994666z m58.6752-19.2512c0 3.4816 0.853333 6.8608 2.56 10.103466a17.954133 17.954133 0 0 0 7.304533 7.4752 21.7088 21.7088 0 0 0 10.5472 2.56 19.7632 19.7632 0 0 0 20.48-20.5824 20.48 20.48 0 0 0-5.802666-14.916266 19.6608 19.6608 0 0 0-14.609067-5.905067 22.971733 22.971733 0 0 0-10.376533 2.4576 16.9984 16.9984 0 0 0-7.543467 7.236267 24.064 24.064 0 0 0-2.56 11.5712z m-33.792-20.3776h-10.478933v54.6816h10.478933v-20.104534a15.428267 15.428267 0 0 0 12.117333 5.9392c2.423467 0 4.573867-0.443733 6.519467-1.3312a10.922667 10.922667 0 0 0 6.417067-8.055466c0.341333-1.706667 0.546133-4.334933 0.546133-7.8848v-23.2448h-10.513067v20.923733a30.788267 30.788267 0 0 1-0.580266 7.918933 5.12 5.12 0 0 1-2.116267 2.6624 6.792533 6.792533 0 0 1-3.7888 0.989867 8.533333 8.533333 0 0 1-4.642133-1.262933 7.236267 7.236267 0 0 1-3.003734-3.822934 22.459733 22.459733 0 0 1-0.955733-7.543466v-19.8656z m93.2864 0h-10.478933v39.6288h9.728v-5.8368a15.940267 15.940267 0 0 0 19.421866 5.461333 10.478933 10.478933 0 0 0 4.334934-3.1744 11.332267 11.332267 0 0 0 2.048-4.4032 33.28 33.28 0 0 0 0.580266-7.031467v-24.644266h-10.478933v20.241066a31.300267 31.300267 0 0 1-0.682667 8.2944 5.802667 5.802667 0 0 1-2.184533 2.935467 6.280533 6.280533 0 0 1-3.618133 1.024 8.123733 8.123733 0 0 1-4.881067-1.501867 7.202133 7.202133 0 0 1-2.9696-3.925333 33.6896 33.6896 0 0 1-0.8192-9.1136v-17.954133z m-208.247467 20.48c0-4.437333 0.887467-7.748267 2.628267-9.864534a8.123733 8.123733 0 0 1 6.4512-3.1744 7.509333 7.509333 0 0 1 6.075733 2.901334c1.6384 1.979733 2.4576 5.154133 2.4576 9.6256 0 4.164267-0.853333 7.236267-2.525866 9.250133a7.714133 7.714133 0 0 1-6.178134 3.003733 8.157867 8.157867 0 0 1-6.382933-2.935466c-1.706667-1.979733-2.525867-4.9152-2.525867-8.8064z m159.505067-0.648534c0-3.959467 0.9216-6.9632 2.798933-9.045333a8.874667 8.874667 0 0 1 6.894934-3.140267c2.730667 0 5.0176 1.058133 6.894933 3.140267 1.8432 2.082133 2.7648 5.12 2.7648 9.1136a13.1072 13.1072 0 0 1-2.7648 8.942933 8.942933 8.942933 0 0 1-6.894933 3.140267 8.874667 8.874667 0 0 1-6.894934-3.140267c-1.877333-2.082133-2.798933-5.085867-2.798933-9.0112z m-27.886933 149.026134c0 8.157867 2.901333 16.0768 8.738133 23.7568 5.802667 7.645867 14.062933 13.5168 24.712533 17.544533a100.6592 100.6592 0 0 0 35.7376 6.0416c20.309333 0 36.9664-4.573867 49.9712-13.7216 12.970667-9.147733 19.490133-20.718933 19.490134-34.679467 0-14.097067-6.587733-25.770667-19.694934-35.054933-13.1072-9.250133-29.5936-13.892267-49.527466-13.892267-12.288 0-24.029867 1.911467-35.2256 5.768534-11.1616 3.8912-19.6608 9.5232-25.463467 16.9984a42.769067 42.769067 0 0 0-8.738133 27.2384zM284.16 615.6288H249.617067L207.121067 708.744533H241.664l25.156267-61.0304 23.176533 61.0304H324.266667l22.391466-61.0304 25.668267 61.0304h35.0208l-43.1104-93.115733H330.069333l-23.1424 59.904-22.766933-59.904z m435.268267 0h-35.566934V744.209067h35.566934v-68.266667l41.608533 32.802133h43.758933l-45.909333-34.030933 49.186133-59.0848h-38.331733l-33.757867 41.813333-16.554666-12.014933v-29.7984z m-101.0688 0h-35.566934V708.744533h33.041067v-13.243733c5.632 6.280533 10.717867 10.376533 15.223467 12.3904 4.5056 1.979733 9.6256 2.9696 15.36 2.9696 8.0896 0 15.906133-1.536 23.415466-4.642133l-11.025066-21.504a40.823467 40.823467 0 0 1-16.6912 4.061866 25.770667 25.770667 0 0 1-12.629334-2.8672 19.114667 19.114667 0 0 1-8.157866-10.308266c-1.979733-4.983467-2.9696-15.36-2.9696-31.232v-28.740267zM454.280533 662.186667c0-9.250133 3.1744-16.315733 9.489067-21.230934 6.3488-4.9152 14.1312-7.3728 23.415467-7.3728 9.284267 0 17.032533 2.4576 23.3472 7.3728 6.280533 4.9152 9.4208 12.049067 9.4208 21.4016 0 9.1136-3.140267 16.145067-9.4208 21.060267a36.795733 36.795733 0 0 1-23.3472 7.3728c-9.284267 0-17.066667-2.4576-23.415467-7.3728-6.314667-4.9152-9.489067-11.9808-9.489067-21.230933z"  horiz-adv-x="1024" />

    
    <glyph glyph-name="qiapian" unicode="&#58631;" d="M928.774707 708.446393L94.112959 708.446393c-15.363919 0-27.821649-12.489452-27.821649-27.895327l0-585.789587c0-15.405875 12.45773-27.895327 27.821649-27.895327l834.661747 0c15.362896 0 27.821649 12.489452 27.821649 27.895327L956.596356 680.551066C956.596356 695.955918 944.137603 708.446393 928.774707 708.446393zM893.005039 131.018242L129.881604 131.018242 129.881604 644.294304l763.123434 0L893.005039 131.018242zM808.546461 515.974777L214.352461 515.974777c-11.532661 0-20.865213-9.370415-20.865213-20.921495l0-22.323425c0-11.550057 9.332553-20.921495 20.865213-20.921495l594.194 0c11.521404 0 20.866237 9.371438 20.866237 20.921495l0 22.323425C829.411675 506.603339 820.067866 515.974777 808.546461 515.974777zM363.379613 259.337769L214.352461 259.337769c-11.532661 0-20.865213-9.356089-20.865213-20.920472l0-22.311145c0-11.564383 9.332553-20.921495 20.865213-20.921495L363.379613 195.18465700000002c11.534707 0 20.866237 9.358135 20.866237 20.921495l0 22.311145C384.246873 249.98167999999998 374.91432 259.337769 363.379613 259.337769z"  horiz-adv-x="1024" />

    
    <glyph glyph-name="loudoutu" unicode="&#58906;" d="M924.928 765.525333A27.861333 27.861333 0 0 1 913.365333 768H110.634667c-14.421333 0-25.728-10.496-25.301334-23.424a22.357333 22.357333 0 0 1 3.114667-10.496l401.962667-721.109333a25.088 25.088 0 0 1 43.861333 0l401.28 721.109333c6.826667 11.562667 2.090667 25.642667-10.624 31.445333z m-799.701333-9.770666l0.469333-0.810667-0.469333 0.810667z m402.090666-721.28l0.384-0.725334-0.384 0.725334z m-14.976 26.837333L142.165333 725.333333h739.669334l-369.493334-664.021333z m385.578667 692.864zM230.656 533.333333h562.688v-42.666666H230.656zM342.741333 320h338.56v-42.666667H342.741333z"  horiz-adv-x="1024" />

    
    <glyph glyph-name="bianji" unicode="&#58913;" d="M817.810286-44.470857c22.016 0 39.862857-18.724571 39.862857-41.764572a40.886857 40.886857 0 0 0-39.862857-41.764571H113.005714A40.886857 40.886857 0 0 0 73.142857-86.235429c0 23.113143 17.846857 41.764571 39.862857 41.764572h704.804572z m-706.706286 56.393143l95.744 268.068571 156.086857-163.620571-251.830857-104.448z m283.794286 135.241143L237.568 312.100571l427.812571 444.854858 157.403429-164.937143-427.885714-444.854857z m457.216 479.158857L694.710857 791.259429 773.412571 873.691429a64.731429 64.731429 0 0 0 94.427429 0l62.902857-65.974858a72.411429 72.411429 0 0 0 0-99.035428L852.114286 626.322286z"  horiz-adv-x="1024" />

    
    <glyph glyph-name="wenjianjia-zhankai" unicode="&#58974;" d="M0 740.864c0 49.152 39.936 89.088 89.088 89.088h278.528c49.152 0 89.088-39.936 89.088-89.088v-22.528c0-24.576 19.968-44.544 44.544-44.544H824.32c49.152 0 89.088-39.936 89.088-89.088v-22.528H253.952c-49.152 0-95.744-39.936-104.96-87.04L51.2-61.44c-29.184 0-51.2 39.936-51.2 89.088V740.864z m198.144-287.744c6.656 35.84 42.496 64.512 80.384 64.512h690.688c37.888 0 60.416-29.184 53.248-64.512l-87.04-448c-6.656-35.84-42.496-64.512-80.384-64.512H97.28L198.144 453.12z m0 0"  horiz-adv-x="1024" />

    
    <glyph glyph-name="bianji1" unicode="&#58990;" d="M910.3 705.8c-0.3 0.3-0.5 0.5-0.8 0.7l-37.8 37.8-15.3-15.3 15.4 15.4-37.8 37.8c-0.3 0.3-0.5 0.5-0.7 0.8-21.3 21.3-55.8 21.3-77.1 0-0.3-0.3-0.5-0.5-0.7-0.8l-37.8-37.8 66.2-66.2 10.9-10.9 38.5-38.5 38.5-38.5 37.8 37.8c0.3 0.3 0.5 0.5 0.8 0.7 21.2 21.2 21.2 55.8-0.1 77zM329.2 62.6L188.5 203.4l491.2 491.2 140.7-140.7-491.2-491.3z m-39-29.1c2.8-10.3-3.4-20.9-13.6-23.6l-125.1-34.8c-0.3-0.1-0.5-0.1-0.8-0.2l-0.9-0.3c-23-6.3-41.1-7.8-47.7-1.2-6.6 6.6-5.1 24.7 1.2 47.7l34.3 130.1c2.8 10.3 13.3 16.4 23.6 13.6l5.3-1.4c10.2-2.7 16.3-13.2 13.7-23.4l87.1-87.1c9.6 1.5 19-4.5 21.5-14.1l1.4-5.3z m-1.4 5.3"  horiz-adv-x="1024" />

    
    <glyph glyph-name="piliangcaozuo_normalx" unicode="&#58882;" d="M384 576h320v-320h128V704H384v-128zM320 576V768h576v-576h-192v-192H128V576h192zM192 512v-448h448V512H192z"  horiz-adv-x="1024" />

    
    <glyph glyph-name="xuritu" unicode="&#58892;" d="M884.363636 30.254545c-93.090909-102.4-223.418182-158.254545-372.363636-158.254545-27.927273 0-55.854545 0-83.781818 9.309091L465.454545 20.945455h55.854546c102.4 0 186.181818 37.236364 251.345454 102.4l111.709091-93.09091z m46.545455 55.854546l-121.018182 93.090909c46.545455 55.854545 65.163636 130.327273 65.163636 214.109091 0 186.181818-139.636364 344.436364-316.50909 363.054545V896c260.654545-27.927273 465.454545-242.036364 465.454545-512 0-111.709091-37.236364-214.109091-93.090909-297.890909z m-567.854546-195.490909C223.418182-62.836364 111.709091 30.254545 55.854545 151.272727L186.181818 207.127273c46.545455-83.781818 111.709091-139.636364 204.8-167.563637l-27.927273-148.945454zM27.927273 216.436364C9.309091 272.290909 0 328.145455 0 384 0 663.272727 223.418182 886.690909 493.381818 896v-148.945455c-195.490909-9.309091-344.436364-167.563636-344.436363-363.054545 0-37.236364 9.309091-83.781818 18.618181-121.018182l-139.636363-46.545454zM27.927273 216.436364C9.309091 272.290909 0 328.145455 0 384 0 663.272727 223.418182 886.690909 502.690909 896v-148.945455c-195.490909 0-353.745455-167.563636-353.745454-363.054545 0-37.236364 9.309091-83.781818 18.618181-121.018182l-139.636363-46.545454zM428.218182-118.690909l27.927273 139.636364h55.854545c102.4 0 204.8 46.545455 269.963636 111.70909l102.4-102.4c-93.090909-102.4-223.418182-158.254545-372.363636-158.254545-27.927273 0-55.854545 0-83.781818 9.309091zM232.727273 290.909091c-9.309091 27.927273-18.618182 65.163636-18.618182 93.090909 0 158.254545 121.018182 279.272727 279.272727 288.581818V523.636364c-74.472727 0-130.327273-65.163636-130.327273-139.636364 0-18.618182 9.309091-27.927273 9.309091-46.545455l-139.636363-46.545454z m27.927272-55.854546l139.636364 55.854546c27.927273-37.236364 65.163636-55.854545 111.709091-55.854546 83.781818 0 148.945455 65.163636 148.945455 148.945455 0 65.163636-37.236364 121.018182-93.09091 139.636364V672.581818c139.636364-27.927273 242.036364-139.636364 242.036364-288.581818 0-158.254545-130.327273-288.581818-288.581818-288.581818-121.018182 0-214.109091 55.854545-260.654546 139.636363zM232.727273 290.909091c-9.309091 27.927273-18.618182 65.163636-18.618182 93.090909 0 158.254545 121.018182 288.581818 279.272727 288.581818V523.636364c-65.163636 0-130.327273-65.163636-130.327273-139.636364 0-18.618182 9.309091-27.927273 9.309091-46.545455l-139.636363-46.545454z"  horiz-adv-x="1024" />

    
    <glyph glyph-name="shezhi" unicode="&#58918;" d="M947.2 469.333c-2.133 17.067-12.8 32-32 36.267h-2.133c-38.4 8.533-66.134 29.866-87.467 66.133-19.2 32-25.6 72.533-12.8 108.8 6.4 14.933 2.133 34.133-12.8 46.933-40.533 38.4-89.6 68.267-145.067 87.467-14.933 6.4-32 2.133-46.933-12.8-23.467-29.866-59.734-44.8-100.267-44.8-36.267 0-70.4 17.067-100.267 46.933-17.067 17.067-34.133 14.934-46.933 10.667-55.467-23.467-102.4-51.2-142.933-85.333-14.934-10.667-21.334-29.867-14.934-46.934 10.667-40.533 6.4-78.933-12.8-113.066-17.066-29.866-49.066-53.333-87.466-64-2.134 0-2.134 0-4.267-2.133-12.8-6.4-21.333-17.067-27.733-32v-2.133c-6.4-32-8.534-59.734-8.534-87.467 0-27.733 2.134-59.733 8.534-85.333 2.133-17.067 12.8-32 32-36.267h2.133c38.4-8.533 66.133-29.867 87.467-66.133 19.2-32 25.6-72.533 12.8-108.8-6.4-14.933-2.134-34.133 12.8-46.933 40.533-38.4 89.6-68.267 147.2-87.467 2.133 0 4.266-2.134 8.533-2.134h6.4c10.667 0 23.467 4.267 34.133 14.934 23.467 27.733 59.734 44.8 100.267 44.8 36.267 0 70.4-17.067 100.267-46.934 8.534-8.533 19.2-14.933 29.867-14.933 4.267 0 10.667 0 14.933 2.134 55.467 23.466 102.4 51.2 142.933 85.333 14.934 8.533 21.334 29.867 14.934 46.933-10.667 40.534-6.4 78.934 12.8 113.066 17.066 29.867 49.066 53.333 87.466 64 2.134 0 2.134 0 4.267 2.133 12.8 6.4 21.333 17.067 27.733 32V294.4c6.4 32 8.534 59.733 8.534 87.467-2.134 29.866-4.267 59.733-10.667 87.466zM507.734 234.666c-83.2 0-149.333 66.133-149.333 149.333s66.133 149.333 149.333 149.333 149.333-66.133 149.333-149.333-66.133-149.333-149.333-149.333z"  horiz-adv-x="1024" />

    
    <glyph glyph-name="guanbi" unicode="&#58946;" d="M963.328-106.818954a37.628062 37.628062 0 0 0-26.596431 11.0336L30.814523 810.131692c-14.686523 14.686523-14.686523 38.5024 0 53.190893 14.686523 14.686523 38.5024 14.686523 53.190892 0l905.991877-905.999754a37.696985 37.696985 0 0 0 7.936-40.912739 37.691077 37.691077 0 0 0-34.605292-23.229046M57.407015-106.818954a37.5552 37.5552 0 0 0-34.857353 23.181785 37.537477 37.537477 0 0 0 8.264861 41.034831L936.816246 863.320615c14.865723 13.520738 37.738338 12.973292 51.936492-1.248492 14.202092-14.219815 14.716062-37.0944 1.169724-51.9424L84.005415-95.787323a37.578831 37.578831 0 0 0-26.5984-11.031631"  horiz-adv-x="1024" />

    
    <glyph glyph-name="4-4-4" unicode="&#59086;" d="M0 704h294.4v-640H0zM364.8 704h294.4v-640H364.8zM729.6 704H1024v-640h-294.4z"  horiz-adv-x="1024" />

    
    <glyph glyph-name="amplification" unicode="&#58967;" d="M449.6 28.799999999999955h-223l245.1 244.9c17.8 18.4 17.3 47.8-1.1 65.7-18 17.4-46.5 17.4-64.5 0L157 90.70000000000005V311.6c0 25.7-20.8 46.5-46.5 46.5S64 337.20000000000005 64 311.6v-329.2c0-25.6 20.8-46.4 46.5-46.4h339c25.6 0 46.5 20.7 46.5 46.4s-20.7 46.4-46.4 46.4zM574.4 739.2h223L552.3 494.3c-17.8-18.4-17.3-47.8 1.1-65.7 18-17.4 46.5-17.4 64.5 0L867 677.3v-220.9c0-25.7 20.8-46.5 46.5-46.5s46.5 20.8 46.5 46.5V785.6c0 25.6-20.8 46.4-46.5 46.4h-339c-25.6 0-46.5-20.7-46.5-46.4 0-25.6 20.7-46.4 46.4-46.4z"  horiz-adv-x="1024" />

    
    <glyph glyph-name="yibiaopan" unicode="&#58943;" d="M983.718 462.997c-25.808 60.932-62.693 115.695-109.652 162.778-46.957 46.958-101.72 83.97-162.777 109.652-63.071 26.689-130.172 40.285-199.286 40.285-69.115 0-136.089-13.596-199.287-40.285-60.932-25.808-115.695-62.694-162.778-109.652s-83.97-101.72-109.652-162.778C13.596 399.925 0 332.824 0 263.711h57.91c0 250.398 203.693 454.091 454.092 454.091 250.398 0 454.091-203.692 454.091-454.091h57.911c0 68.988-13.597 136.088-40.286 199.286zM125.64 50.198h770.332v-57.91H125.64v57.91zM488.964 131.398l111.037-0.756-0.756 111.036-288.544 178.138 178.263-288.418z m52.748 57.533l-20.269 0.125-32.479 52.623 52.622-32.479 0.126-20.269z m-432.941 22.156h80.571v-57.91h-80.571v57.91z m71.295 260.697l40.949 40.949 56.972-56.972-40.949-40.95-56.972 56.973z m564.747-16.038l56.972 56.969 40.947-40.946-56.967-56.973-40.952 40.95zM482.795 665.431h57.91v-80.319h-57.91v80.319z m351.238-454.344h80.57v-57.91h-80.57v57.91z"  horiz-adv-x="1024" />

    
    <glyph glyph-name="kanbanmiaoshu" unicode="&#58986;" d="M950.857143 896H73.142857a73.142857 73.142857 0 0 1-73.142857-73.142857v-877.714286a73.142857 73.142857 0 0 1 73.142857-73.142857h877.714286a73.142857 73.142857 0 0 1 73.142857 73.142857V822.857143a73.142857 73.142857 0 0 1-73.142857 73.142857z m0-950.857143H73.142857V603.428571h877.714286z m0 731.428572H73.142857V822.857143h877.714286zM292.571429 457.142857H219.428571v-73.142857h73.142858z m512 0H365.714286v-73.142857h438.857143zM292.571429 310.857143H219.428571v-73.142857h73.142858z m512 0H365.714286v-73.142857h438.857143z m-512-146.285714H219.428571v-73.142858h73.142858z m512 0H365.714286v-73.142858h438.857143z"  horiz-adv-x="1024" />

    
    <glyph glyph-name="chexiao-zuo" unicode="&#58912;" d="M733.405405 594.335135c-141.145946 141.145946-365.318919 146.681081-513.383783 17.989189l-63.654054 63.654054-19.372973-193.729729 193.729729 19.372973-60.886486 62.27027c120.389189 101.016216 301.664865 95.481081 415.135135-17.989189 120.389189-120.389189 120.389189-315.502703 0-434.508108-13.837838-13.837838-13.837838-35.978378 0-48.432433 6.918919-6.918919 15.221622-9.686486 24.908108-9.686486s17.989189 2.767568 24.908108 9.686486c145.297297 146.681081 145.297297 384.691892-1.383784 531.372973z"  horiz-adv-x="1024" />

    
    <glyph glyph-name="fsux_tubiao_shuiqiutu" unicode="&#58708;" d="M511.83560059-37.875c-56.86048718 0-112.01728903 11.1804332-163.9796814 33.11537723-50.15222726 21.18958237-95.19340017 51.64295141-133.95223388 90.29530536-38.65235394 38.65235394-69.10572299 83.69352603-90.29530536 133.95223388-21.93494485 51.96239236-33.11537723 107.11919504-33.11537723 163.97968223 0 56.86048718 11.1804332 112.01728903 33.11537723 163.97968139 21.18958237 50.15222726 51.64295141 95.19340017 90.29530536 133.95223388C252.55603842 720.05186792 297.59721133 750.5052369699999 347.85591919 771.69481933 399.71183097 793.6297641799999 454.97511341 804.81019657 511.83560059 804.81019657s112.01728903-11.1804332 163.97968222-33.11537724c50.15222726-21.18958237 95.19340017-51.64295141 133.95223388-90.29530535 38.65235394-38.65235394 69.10572299-83.69352603 90.29530536-133.95223389 21.93494485-51.96239236 33.11537723-107.11919504 33.11537722-163.97968139 0-56.86048718-11.1804332-112.01728903-33.11537722-163.97968223-21.18958237-50.15222726-51.64295141-95.19340017-90.29530536-133.95223388-38.65235394-38.65235394-83.69352603-69.10572299-133.95223388-90.29530537-51.96239236-21.93494485-107.11919504-33.11537723-163.97968223-33.11537722z m0 808.71797708c-213.59950818 0-387.37537839-173.77587103-387.37537839-387.37537838s173.77587103-387.37537839 387.37537838-387.37537922 387.37537839 173.77587103 387.37537922 387.37537922S725.43510877 770.84297707 511.83560059 770.84297707z m0 0M705.31032984 437.5595971l-73.36493592-141.93825677H611.1817331l69.53164453 133.95223389c-45.89301517-22.25438581-82.20280188-78.79543121-150.88260416-84.97128983-4.89809399-14.1618815-12.13875604-25.23583411-21.61550308-33.00889745-9.79618882-7.98602371-22.04142462-12.03227545-36.94866861-12.03227546-19.59237762 0-35.03202292 7.02770086-46.21245612 21.0831026-12.8841177 16.29148755-19.59237762 42.59212509-20.12477893 78.68895062C368.40661965 428.40229019 332.20331272 455.23532904 283.32884924 440.64752683l-3.0879289-15.5461259c12.24523582 8.51842502 25.02287375 12.77763794 38.43939277 12.77763713 17.78221252 0 32.68945568-6.17585779 44.93469232-18.4210936 12.24523582-12.24523582 18.31461383-28.11080264 18.31461384-47.38373933 0-18.42109443-5.32401553-34.28666043-16.0785272-47.70318025-12.99059829-16.50444873-30.87929059-24.7034328-53.34663675-24.70343281-18.52757419 0-33.54129877 5.21753494-45.25413327 15.5461259s-18.42109443 24.06455091-20.01829917 41.20788069l26.19415695 2.23608665c1.91664569-12.77763794 6.49529873-22.36086557 13.52299962-28.74968455s15.54612589-9.68970822 25.55527587-9.68970822c12.03227545 0 22.14790522 4.57865387 30.45336905 13.6294802 8.30546467 9.05082632 12.45819699 21.08310178 12.45819699 36.09682636 0 14.26836209-4.04625173 25.44879446-12.03227545 33.64777852-7.98602371 8.19898406-18.42109443 12.3517164-31.41169272 12.3517164-8.09250348 0-15.3331647-1.81016511-21.72198367-5.43049612-6.49529873-3.62033103-11.60635391-8.41194442-15.22668494-14.1618815l-23.42566901 3.08792889 5.74993708 30.2404087c-20.44421988-11.39339355-90.40178595-43.55044794-145.87802875-68.14740015 0 0 17.88869229-367.14411887 400.36597668-370.6579693 0 0 397.06508743 0 400.68541764 403.87982712-58.45769192 59.30953418-174.41475293 48.02262122-207.21068838 42.80508544z m68.25387991-127.98933562c-8.41194442-9.26378751-18.95349573-13.94892114-31.4116919-13.94892115-12.24523582 0-22.57382676 4.57865387-30.66633023 13.84244055-8.19898406 9.15730691-12.24523582 22.99974746-12.24523581 41.4208419 0 14.58780305 3.62033103 26.93951944 10.96747202 37.0551492 7.34714182 10.11562976 17.88869229 15.22668494 31.94409402 15.2266841 12.77763794 0 23.31918842-4.57865387 31.73113284-13.62948019 8.41194442-9.15730691 12.56467676-22.46734616 12.56467758-40.14307726-0.21296035-17.35629098-4.47217328-30.55984964-12.88411852-39.82363715z m0 0M742.68491916 385.81016511c-6.28233838 0-11.49987414-2.66200818-15.54612589-8.09250349-4.15273233-5.32401553-6.17585779-15.22668494-6.17585779-29.49504702 0-12.99059829 2.12960605-22.14790522 6.28233838-27.47192075 4.15273233-5.32401553 9.26378751-8.09250348 15.4396453-8.09250348 6.38881897 0 11.60635391 2.66200818 15.75908624 8.09250348 4.15273233 5.32401553 6.17585779 15.12020435 6.17585861 29.38856643 0 13.09707889-2.12960605 22.36086557-6.28233838 27.68488193-4.25921292 5.43049612-9.47674787 7.98602371-15.65260647 7.9860229z m-300.27448252-49.08742383c7.77306253-11.07395261 17.46277158-16.6109285 28.9626449-16.61092932s21.08310178 5.53697589 28.85616514 16.61092932c1.59720474 2.23608664 2.98144912 5.00457458 4.25921291 8.09250347-27.36544015 3.51385043-50.79110916 17.46277158-72.93901437 33.86073972 1.59720474-19.91181858 5.11105518-33.86073972 10.86099142-41.95324319z m-151.20204428 143.0030602h81.13799844v23.85158973h-101.1562976l-13.94892032-74.11029758c9.15730691 5.11105518 17.78221252 8.73138537 26.08767636 11.1804332l7.87954312 39.07827465z m0 0M430.69760215 403.37941727c0 33.32833759 4.25921292 56.22160529 12.8841177 68.67980145 6.81473968 9.68970822 15.9720466 14.58780305 27.47192074 14.58780304 11.60635391 0 21.40254273-5.53697589 29.17560609-16.50444873s11.7128345-33.22185782 11.7128345-66.656676c0-26.5135979-2.449047-45.99949493-7.45362159-58.45769192 4.25921292-0.5324013 8.62490561-0.85184226 13.09707806-0.85184226 4.25921292 0 8.30546467 0.21296035 12.3517164 0.53240131l0.31944095 0.95832285c4.89809399 14.69428281 7.34714182 33.86073972 7.34714182 57.71233026 0 20.12477893-1.49072415 36.20330613-4.57865386 48.02262121-3.08792889 11.92579486-7.24066123 21.93494485-12.56467677 30.24040869-5.32401553 8.30546467-12.13875604 14.58780305-20.33774011 18.95349573-8.19898406 4.36569268-17.78221252 6.60177933-28.74968454 6.60177933-14.8007634 0-27.04599921-3.93977197-36.84218801-11.92579486-9.79618882-7.98602371-17.14333063-19.27293667-22.04142463-33.86073972-4.89809399-14.69428281-7.45362158-33.96721948-7.45362158-58.03177038v-3.93977198c8.73138537-6.92122028 17.46277158-13.94892114 26.5135979-20.65718023-0.5324013 7.34714182-0.85184226 15.54612589-0.85184307 24.59695221z m311.98731701 106.48031232h-20.23125952l-41.63380225-80.28615537c7.87954312 3.83329138 15.9720466 6.60177933 24.49047245 7.98602289l37.37458932 72.30013248z m-132.03558819-107.54511576c12.3517164 0 22.78678711 4.68513364 31.30521212 13.94892115 8.41194442 9.26378751 12.67115735 22.57382676 12.67115735 39.71715655 0 17.67573193-4.15273233 30.98577118-12.56467676 40.1430781-8.41194442 9.15730691-18.95349573 13.6294802-31.73113366 13.62948019-13.84244055 0-24.49047162-5.11105518-31.73113284-15.22668494-7.34714182-10.22211035-10.96747202-22.46734616-10.96747202-37.0551492 0-18.52757419 4.04625173-32.26353498 12.24523581-41.42084106 8.30546467-9.15730691 18.52757419-13.73596079 30.77281-13.73596079z m-15.01372377 82.30928165c4.15273233 5.32401553 9.26378751 8.09250348 15.4396453 8.0925043 6.17585779 0 11.39339355-2.66200818 15.54612589-7.98602371 4.15273233-5.32401553 6.28233838-14.58780305 6.28233838-27.6848811 0-14.26836209-2.02312628-24.06455091-6.17585862-29.38856644s-9.26378751-8.09250348-15.54612506-8.0925043c-6.06937803 0-11.1804332 2.66200818-15.43964529 7.98602371-4.15273233 5.32401553-6.28233838 14.48132244-6.28233921 27.47192074 0 14.37484186 2.02312628 24.17103067 6.17585861 29.6015268z m0 0"  horiz-adv-x="1024" />

    
    <glyph glyph-name="shanchu" unicode="&#58902;" d="M731.918 715.466H293.285c-40.383 0-73.106-32.72-73.106-73.103v-24.368h584.844v24.368c0.001 40.383-32.72 73.103-73.105 73.103m-127.696 48.735l10.756-76.91H410.225l10.756 76.91h183.24m5.855 48.735H415.128c-20.108 0-38.813-16.277-41.621-36.218L359.252 674.75c-2.784-19.917 11.4-36.194 31.508-36.194h243.685c20.108 0 34.293 16.276 31.484 36.217l-14.255 101.969c-2.786 19.917-21.49 36.194-41.598 36.194m134.026-243.675H281.1c-26.795 0-46.761-21.845-44.334-48.544l39.933-438.996c2.403-26.7 26.344-48.544 53.14-48.544h365.527c26.795 0 50.736 21.845 53.14 48.544l39.932 438.996c2.426 26.699-17.54 48.544-44.336 48.544M415.128 130.647h-73.106L317.653 471.79h97.474v-341.144z m146.211 0h-97.474V471.79h97.474v-341.144z m121.842 0h-73.106V471.79h97.474l-24.368-341.144z"  horiz-adv-x="1024" />

    
    <glyph glyph-name="wenjianjia" unicode="&#58896;" d="M930.133333 712.533333H401.066667c-8.533333 0-21.333333 4.266667-25.6 12.8L320 785.066667c-8.533333 8.533333-17.066667 12.8-29.866667 12.8H153.6c-21.333333 0-38.4-17.066667-38.4-42.666667v-682.666667c0-25.6 17.066667-42.666667 38.4-42.666666h776.533333c21.333333 0 38.4 17.066667 38.4 42.666666v597.333334c0 21.333333-17.066667 42.666667-38.4 42.666666z m-72.533333-128H221.866667c-12.8 0-25.6 8.533333-25.6 21.333334s12.8 21.333333 25.6 21.333333h635.733333c12.8 0 25.6-8.533333 25.6-21.333333s-12.8-21.333333-25.6-21.333334z"  horiz-adv-x="1024" />

    
    <glyph glyph-name="shuaxin" unicode="&#58965;" d="M821.188 81.619a379.482 379.482 0 0 0-223.473-68.85c-10.541 0.121-20.842 0.904-31.202 1.687-4.217 0.422-8.433 1.145-12.65 1.687a313.043 313.043 0 0 0-24.094 3.735c-4.818 0.843-9.758 2.228-14.456 3.313a346.353 346.353 0 0 0-23.13 5.662c-3.615 1.385-6.988 2.47-10.602 3.915a289.732 289.732 0 0 0-25.901 9.336l-5.662 2.29a669.455 669.455 0 0 0-29.094 14.155l-1.204 0.662a380.567 380.567 0 0 0-86.86 65.115c-0.421 0.482-0.783 0.963-1.325 1.385a318.344 318.344 0 0 0-27.166 30.84 379.482 379.482 0 0 0-83.546 237.569h100.472L160.648 635.06 0 394.12h100.292c0-105.533 33.069-203.415 88.967-284.492 0.603-1.204 1.085-2.47 1.807-3.493 5.783-8.433 12.288-16.023 18.432-23.733 2.41-2.831 4.458-5.722 6.927-8.915a562.296 562.296 0 0 1 31.624-34.455 498.99 498.99 0 0 1 112.88-84.75l3.314-1.808a520.801 520.801 0 0 1 36.442-17.709c3.193-1.325 6.204-2.71 9.216-4.036 10.662-4.517 21.564-8.252 32.527-12.047 5.12-1.807 10.36-3.554 15.54-5.24 9.639-2.71 19.457-5.24 29.275-7.41 6.626-1.565 12.95-3.252 19.697-4.456 2.71-0.663 5.3-1.506 8.012-1.808 9.456-1.686 18.733-2.59 28.009-3.674 3.433-0.602 6.746-1.205 10.12-1.566a498.146 498.146 0 0 1 337.136 88.425 60.235 60.235 0 0 1 14.879 83.788 59.874 59.874 0 0 1-83.908 14.818z m282.925 312.5a498.025 498.025 0 0 1-88.185 283.709c-0.903 1.385-1.385 2.83-2.108 4.036-7.168 9.938-14.516 19.154-22.166 28.49a35.539 35.539 0 0 0-2.41 3.434 501.88 501.88 0 0 1-187.512 140.65c-2.169 0.843-3.976 1.807-6.084 2.65-11.686 4.819-23.492 8.915-35.539 13.01-4.096 1.386-8.433 2.892-12.77 4.217a503.627 503.627 0 0 1-31.443 8.192c-5.963 1.265-11.926 2.831-17.83 4.036-2.89 0.482-5.54 1.325-8.673 1.928-7.951 1.325-15.721 2.048-23.673 3.011-5.541 0.603-10.842 1.446-16.444 2.048A519.65 519.65 0 0 1 609.4 895.578c-2.409 0-4.818 0.362-7.228 0.362-0.361 0-0.843-0.06-1.204-0.18a497.483 497.483 0 0 1-286.54-90.595 60.235 60.235 0 1 1 69.27-98.545 378.217 378.217 0 0 0 255.037 66.982c3.433-0.241 6.626-0.783 10.12-1.265 9.035-1.145 18.07-2.35 26.925-4.217 3.855-0.662 7.83-1.686 11.444-2.53 8.855-1.987 17.408-4.035 25.902-6.625a72.36 72.36 0 0 0 7.95-2.71c9.82-3.193 19.396-6.506 28.673-10.482 1.024-0.24 1.927-1.024 2.891-1.325a382.916 382.916 0 0 0 144.565-108.604 380.205 380.205 0 0 0 86.739-241.724H883.35l160.828-241.002 160.527 241.002h-100.593z"  horiz-adv-x="1204" />

    


  </font>
</defs>
</svg>
